<?xml version="1.0" encoding="iso-8859-1"?>
<!-- Generator: Adobe Illustrator 19.0.0, SVG Export Plug-In . SVG Version: 6.00 Build 0)  -->
<svg version="1.1" id="Layer_1" xmlns="http://www.w3.org/2000/svg" xmlns:xlink="http://www.w3.org/1999/xlink" x="0px" y="0px"
	 viewBox="0 0 512 512" style="enable-background:new 0 0 512 512;" xml:space="preserve">
<path style="fill:#B3D8F4;" d="M277.133,217.668c-6.903-0.992-13.957-1.516-21.132-1.516c-7.175,0-14.229,0.524-21.132,1.516
	c-71.59,10.286-126.793,72.017-126.793,146.407c0,81.566,66.359,147.925,147.925,147.925s147.925-66.359,147.925-147.925
	C403.925,289.685,348.723,227.953,277.133,217.668z M152.467,385.207h40.682c1.334,25.621,5.135,50.434,11.593,71.218
	C178.239,441.655,158.704,415.825,152.467,385.207z M193.15,342.943h-40.682c6.238-30.618,25.771-56.447,52.274-71.217
	C198.283,292.511,194.484,317.323,193.15,342.943z M256.001,467.817c-6.82-8.661-17.836-36.756-20.523-82.611h20.523h20.523
	C273.836,431.063,262.821,459.156,256.001,467.817z M256.001,342.943h-20.523c2.688-45.855,13.705-73.947,20.523-82.61
	c6.82,8.661,17.835,36.754,20.523,82.61H256.001z M307.26,456.425c6.458-20.784,10.258-45.599,11.592-71.218h40.684
	C353.294,415.825,333.763,441.655,307.26,456.425z M318.85,342.943c-1.333-25.621-5.134-50.431-11.592-71.217
	c26.504,14.77,46.036,40.599,52.274,71.217H318.85z"/>
<path style="fill:#B6E892;" d="M405.161,21.963c-0.976-8.781-7.309-16.027-15.879-18.169C387.73,3.406,373.535,0,353.923,0
	c-36.277,0-66.996,11.544-88.837,33.385c-3.26,3.26-6.29,6.713-9.085,10.349c-2.795-3.636-5.827-7.089-9.087-10.351
	C219.322,5.792,183.375,0,158.079,0c-19.618,0-33.807,3.406-35.362,3.795c-8.568,2.143-14.901,9.388-15.877,18.168
	c-0.934,8.411-8.03,83.283,30.089,121.404c27.591,27.59,63.537,33.383,88.834,33.383c3.191,0,6.233-0.092,9.105-0.245v41.163
	c6.903-0.992,13.957-1.516,21.132-1.516c7.175,0,14.229,0.524,21.132,1.516v-41.163c2.873,0.152,5.914,0.245,9.105,0.245h0.006
	c36.273,0,66.989-11.542,88.828-33.383C413.191,105.246,406.095,30.375,405.161,21.963z"/>
<path style="fill:#7ED63E;" d="M256.001,43.734c-2.795-3.636-5.827-7.089-9.087-10.351C219.322,5.792,183.375,0,158.079,0
	c-19.618,0-33.807,3.406-35.362,3.795c-8.568,2.141-14.901,9.388-15.877,18.168c-0.934,8.411-8.03,83.283,30.089,121.404
	c27.591,27.59,63.537,33.383,88.834,33.383c3.191,0,6.233-0.092,9.105-0.245v41.163c6.903-0.992,13.957-1.516,21.132-1.516V43.734
	H256.001z"/>
<path style="fill:#8CB7E8;" d="M235.476,385.207h20.523v-42.264h-20.523c2.688-45.855,13.705-73.947,20.523-82.61v-44.182
	c-7.175,0-14.229,0.524-21.132,1.516c-71.59,10.286-126.793,72.017-126.793,146.407c0,81.566,66.359,147.925,147.925,147.925
	v-44.182C249.181,459.156,238.165,431.063,235.476,385.207z M152.467,385.207h40.682c1.334,25.621,5.135,50.434,11.593,71.218
	C178.239,441.655,158.704,415.825,152.467,385.207z M193.15,342.943h-40.682c6.238-30.618,25.771-56.447,52.274-71.217
	C198.283,292.511,194.484,317.323,193.15,342.943z"/>
<g>
</g>
<g>
</g>
<g>
</g>
<g>
</g>
<g>
</g>
<g>
</g>
<g>
</g>
<g>
</g>
<g>
</g>
<g>
</g>
<g>
</g>
<g>
</g>
<g>
</g>
<g>
</g>
<g>
</g>
</svg>
